<?xml version="1.0" encoding="iso-8859-1"?>
<!-- Generator: Adobe Illustrator 19.0.0, SVG Export Plug-In . SVG Version: 6.00 Build 0)  -->
<svg version="1.1" id="Layer_1" xmlns="http://www.w3.org/2000/svg" xmlns:xlink="http://www.w3.org/1999/xlink" x="0px" y="0px"
	 viewBox="0 0 504.123 504.123" style="enable-background:new 0 0 504.123 504.123;" xml:space="preserve">
<circle style="fill:#9ad1a4;" cx="252.062" cy="252.062" r="252.062"/>
<rect x="182.353" y="94.427" transform="matrix(-0.8801 0.4748 -0.4748 -0.8801 440.1673 121.018)" style="fill:#F4F4F4;" width="44.899" height="43.323"/>
<rect x="168.218" y="88.659" transform="matrix(-0.8801 0.4748 -0.4748 -0.8801 406.887 85.59)" style="fill:#ACB3BA;" width="48.837" height="11.028"/>
<path style="fill:#CED5E0;" d="M226.855,181.957c0-3.545-1.182-7.089-3.545-9.452c0.394,1.182,0.788,2.757,0.788,4.332
	c0,6.695-4.332,12.209-10.634,14.178l-2.363,0.788l2.757,5.514l2.363-0.788C222.523,194.166,226.855,188.652,226.855,181.957z"/>
<path style="fill:#ACB3BA;" d="M196.529,147.298l38.203-20.48c1.969-1.182,4.332-1.182,6.695-0.788
	c2.363,0.788,3.938,1.969,5.12,4.332l38.203,70.892l0,0l-40.96-76.8c-1.182-1.969-2.757-3.545-5.12-4.332s-4.726-0.394-6.695,0.788
	l-38.203,20.874c-4.332,2.363-5.908,7.483-3.545,11.815l2.757,5.12C191.015,154.388,192.591,149.268,196.529,147.298z"/>
<g>
	<path style="fill:#F4F4F4;" d="M285.145,201.255l-38.203-70.892c-1.182-1.969-2.757-3.545-5.12-4.332
		c-2.363-0.788-4.726-0.394-6.695,0.788l-38.203,20.48c-3.938,2.363-5.514,7.483-3.545,11.422l4.332,7.877l1.969-1.575
		c2.757-2.363,5.908-3.545,9.452-3.545c6.695,0,12.603,4.726,14.572,11.028c2.363,2.757,3.545,5.908,3.545,9.452
		c0,6.695-4.332,12.209-10.634,14.178l-2.757,0.788l17.723,32.689L285.145,201.255z"/>
	<path style="fill:#F4F4F4;" d="M269.391,285.538c4.726-0.788,7.877-4.726,8.665-9.058v-0.394l-3.938-18.905
		c-7.089,2.363-14.572,1.969-21.662,0l3.938,19.692C257.969,282.782,263.483,286.72,269.391,285.538z"/>
	<path style="fill:#F4F4F4;" d="M310.351,255.212c4.332-4.332,4.332-11.028,0-15.36l-11.422-11.422
		c-1.182,7.483-4.726,14.178-9.846,19.692l7.483,7.483c1.182,1.182,2.757,2.363,4.726,2.757
		C304.443,258.757,307.988,257.575,310.351,255.212z"/>
</g>
<path style="fill:#2B3B4E;" d="M296.96,204.406l-1.182-1.969l-67.348,36.628l1.182,1.969c4.726,8.665,12.209,14.966,21.662,18.117
	c3.938,1.182,7.877,1.969,12.209,1.969c3.938,0,7.877-0.394,11.422-1.575c2.363-0.788,4.726-1.575,6.695-2.757
	c3.545-1.969,6.302-3.938,9.058-6.695c5.908-5.908,9.452-13.785,10.634-22.055C302.474,219.766,300.898,211.495,296.96,204.406z"/>
<path style="fill:#324A5E;" d="M331.618,311.926c-16.542,28.751-46.868,46.474-79.951,46.474c-50.412,0-91.766-40.96-91.766-91.372
	c0-29.538,14.572-57.502,38.991-74.437l-9.058-15.754c-28.751,20.48-46.868,55.138-46.868,90.585
	c0,57.108,44.111,103.975,100.431,108.308v24.418h17.329v-24.418c29.538-2.363,56.714-16.542,75.618-38.991
	C342.252,328.468,340.283,317.046,331.618,311.926z"/>
<path style="fill:#2B3B4E;" d="M208.738,150.449c-14.178,0-25.994,11.815-25.994,25.994c0,14.178,11.815,25.994,25.994,25.994
	s25.994-11.815,25.994-25.994C234.732,162.265,222.917,150.449,208.738,150.449z"/>
<circle style="fill:#324A5E;" cx="208.738" cy="176.443" r="10.24"/>
<rect x="218.665" y="212.536" transform="matrix(-0.8801 0.4748 -0.4748 -0.8801 594.2413 286.0316)" style="fill:#ACB3BA;" width="84.677" height="11.028"/>
<g>
	<path style="fill:#2B3B4E;" d="M155.963,426.535L155.963,426.535h191.409l0,0c0-21.662-12.997-38.991-29.145-38.991h-133.12
		C168.96,387.545,155.963,404.874,155.963,426.535z"/>
	<path style="fill:#2B3B4E;" d="M358.4,320.591l-64.985,19.692c-4.726,1.575-9.452-1.182-11.028-5.908l-0.394-1.969
		c-1.575-4.726,1.182-9.452,5.908-11.028l64.985-19.692c4.726-1.575,9.452,1.182,11.028,5.908l0.394,1.969
		C365.489,314.289,363.126,319.015,358.4,320.591z"/>
</g>
<g>
</g>
<g>
</g>
<g>
</g>
<g>
</g>
<g>
</g>
<g>
</g>
<g>
</g>
<g>
</g>
<g>
</g>
<g>
</g>
<g>
</g>
<g>
</g>
<g>
</g>
<g>
</g>
<g>
</g>
</svg>
